<?xml version="1.0" encoding="UTF-8"?>
<svg width="137px" height="25px" viewBox="0 0 137 25" version="1.1" xmlns="http://www.w3.org/2000/svg" xmlns:xlink="http://www.w3.org/1999/xlink">
    <!-- Generator: Sketch 42 (36781) - http://www.bohemiancoding.com/sketch -->
    <title>logo</title>
    <desc>Created with Sketch.</desc>
    <defs></defs>
    <g id="Page-1" stroke="none" stroke-width="1" fill="none" fill-rule="evenodd">
        <g id="TOP---posts/new-Copy-2" transform="translate(-20.000000, -21.000000)">
            <g id="header">
                <g id="logo" transform="translate(20.000000, 21.000000)">
                    <g>
                        <path d="M13.8047297,15.0966216 C15.102027,15.7837838 6.7972973,11.8533784 0.0675675676,16.5905405 C2.46148649,16.6047297 4.17837838,17.0790541 4.4722973,17.4722973 C4.76621622,17.8635135 6.25608108,18.2121622 7.19459459,17.5027027 C8.13310811,16.7972973 13.2310811,14.7925676 13.8047297,15.0966216" id="Fill-2" fill="#FFFFFF"></path>
                        <path d="M13.4459459,13.2236486 C14.9033784,13.4121622 5.7472973,12.652027 1.11351351,19.4547297 C3.35945946,18.6277027 5.13310811,18.4675676 5.54662162,18.7310811 C5.96013514,18.9925676 7.47635135,18.7939189 8.10472973,17.8027027 C8.73513514,16.8094595 12.8033784,13.1405405 13.4459459,13.2236486" id="Fill-3" fill="#FFFFFF"></path>
                        <path d="M17.8060811,13.2601351 C16.4378378,12.1108108 10.6283784,12.2162162 9.08783784,13.2601351 C6.73445946,14.8513514 9.08783784,22.2621622 9.08783784,22.2621622 L9.09189189,22.2621622 C9.09594595,22.3006757 9.10608108,22.3371622 9.11824324,22.3736486 L9.57837838,23.7297297 L9.68175676,24.0439189 C10.0243243,25.0554054 10.5837838,25.0554054 10.9283784,24.0439189 L11.0337838,23.7297297 C11.0337838,23.7297297 11.277027,23.0648649 11.497973,22.772973 C11.7209459,22.4810811 15.402027,22.3918919 15.5236486,22.772973 C15.6493243,23.1560811 15.9898649,24.0439189 15.9898649,24.0439189 C16.3324324,25.0554054 16.8918919,25.0554054 17.2344595,24.0439189 L17.3398649,23.7297297 L17.7837838,22.3432432 C17.7918919,22.3168919 17.8,22.2905405 17.8040541,22.2621622 L17.8060811,22.2621622 C17.8060811,22.2621622 19.9,15.0094595 17.8060811,13.2601351" id="Fill-4" fill="#FFFFFF"></path>
                        <path d="M16.222973,16.9452703 C16.222973,18.1168919 14.6337838,19.1222973 13.8351351,19.5540541 C13.5574324,19.7060811 13.222973,19.7060811 12.9432432,19.5540541 C12.1466216,19.1222973 10.5574324,18.1168919 10.5574324,16.9452703 C10.5574324,15.3824324 11.1310811,14.1135135 13.3912162,14.1135135 C15.7709459,14.1135135 16.222973,15.3824324 16.222973,16.9452703" id="Fill-5" fill="#269C96"></path>
                        <path d="M12.547973,19.5094595 C12.6351351,19.4445946 12.9533784,19.2256757 13.3222973,18.9722973 C14.0195946,18.4939189 15.4851351,17.3648649 15.7243243,17.1682432 L15.5824324,16.9817568 C15.3493243,17.1702703 13.8898649,18.2972973 13.1945946,18.7736486 C12.8094595,19.0371622 12.5054054,19.247973 12.4121622,19.3148649 L12.547973,19.5094595" id="Fill-6" fill="#FFFFFF"></path>
                        <path d="M11.2425676,18.8709459 C11.3297297,18.8060811 11.647973,18.5871622 12.0168919,18.3337838 C12.7141892,17.8554054 13.6689189,17.2006757 13.9101351,17.0060811 L13.7662162,16.8175676 C13.5351351,17.0081081 12.5844595,17.6587838 11.8912162,18.1351351 C11.5040541,18.3986486 11.2,18.6094595 11.1087838,18.6763514 L11.2425676,18.8709459" id="Fill-7" fill="#FFFFFF"></path>
                        <path d="M14.3925676,19.5094595 C14.3054054,19.4445946 13.9871622,19.2256757 13.6182432,18.9722973 C12.9209459,18.4939189 11.4554054,17.3648649 11.2162162,17.1682432 L11.3581081,16.9817568 C11.5912162,17.1702703 13.0506757,18.2972973 13.7439189,18.7736486 C14.1310811,19.0371622 14.4351351,19.247973 14.5263514,19.3148649 L14.3925676,19.5094595" id="Fill-8" fill="#FFFFFF"></path>
                        <path d="M15.697973,18.8709459 C15.6108108,18.8060811 15.2925676,18.5871622 14.9236486,18.3337838 C14.2263514,17.8554054 13.2695946,17.2006757 13.0304054,17.0060811 L13.1722973,16.8175676 C13.4054054,17.0081081 14.3560811,17.6587838 15.0493243,18.1351351 C15.4364865,18.3986486 15.7405405,18.6094595 15.8317568,18.6763514 L15.697973,18.8709459" id="Fill-9" fill="#FFFFFF"></path>
                        <path d="M24.3493243,4.83986486 C22.7094595,2.50675676 17.575,0.550675676 13.4905405,0.692567568 C11.6439189,0.757432432 9.81148649,1.15472973 8.37432432,1.99189189 C6.73648649,0.652027027 4.18851351,-0.0108108108 3.95743243,0.439189189 C3.67567568,0.992567568 4.31824324,4.2722973 5.04797297,5.83310811 C4.54527027,6.85675676 4.19864865,8.48445946 4.22702703,10.1182432 C4.32432432,15.4777027 8.32364865,17.3486486 13.2574324,17.3486486 C18.3331081,17.3486486 22.3810811,15.347973 22.3405405,10.1182432 C22.3304054,8.87364865 22.077027,7.26418919 21.6959459,6.25067568 C23.1777027,5.81689189 24.5581081,5.13581081 24.3493243,4.83986486" id="Fill-10" fill="#FFFFFF"></path>
                        <path d="M21.7243243,15.8364865 C20.0905405,15.7412162 19.4540541,16.4952703 19.2128378,16.9594595 C19.0202703,17.2452703 18.9067568,17.5918919 18.9067568,17.9628378 C18.9067568,18.9540541 19.7114865,19.7567568 20.7027027,19.7567568 C21.2013514,19.7567568 21.6554054,19.5540541 21.9817568,19.2216216 C21.9635135,19.2804054 21.9412162,19.3412162 21.9128378,19.402027 C21.8925676,19.4385135 21.8662162,19.4952703 21.8540541,19.5155405 C21.847973,19.5297297 21.8398649,19.5439189 21.8398649,19.5439189 C21.8195946,19.5824324 21.7871622,19.6189189 21.7648649,19.6493243 C21.7121622,19.7243243 21.6635135,19.775 21.5945946,19.8418919 C21.4567568,19.9635135 21.2783784,20.0628378 21.0898649,20.1297297 C20.9013514,20.1945946 20.7027027,20.227027 20.5101351,20.2351351 C20.4128378,20.2290541 20.3155405,20.2371622 20.2202703,20.2189189 C20.1756757,20.2128378 20.1290541,20.2067568 20.0824324,20.2027027 C20.0378378,20.1905405 19.9932432,20.1804054 19.9486486,20.1702703 C19.8594595,20.1540541 19.7763514,20.1195946 19.6952703,20.0932432 C19.6141892,20.0689189 19.5391892,20.0324324 19.4682432,19.997973 C19.3182432,19.9371622 19.222973,19.8682432 19.1256757,19.8195946 C19.0222973,19.7547297 18.3716216,19.3067568 18.3716216,19.3067568 C18.1141892,19.1182432 18.1547297,19.4121622 17.9256757,19.6472973 C17.6743243,19.9047297 17.6824324,20.3182432 17.9398649,20.5695946 L17.9398649,20.5695946 C17.9398649,20.5695946 17.9702703,20.597973 18.022973,20.6486486 C18.0797297,20.7033784 18.1466216,20.7743243 18.2621622,20.8756757 C18.3959459,20.9810811 18.5621622,21.1290541 18.7527027,21.2445946 C18.85,21.3074324 18.9513514,21.3763514 19.0709459,21.4351351 C19.1885135,21.4959459 19.3101351,21.5628378 19.45,21.6135135 C19.5168919,21.6418919 19.5878378,21.6702703 19.6587838,21.6986486 C19.7358108,21.7209459 19.8108108,21.7432432 19.8878378,21.7655405 C20.0418919,21.8162162 20.2101351,21.8385135 20.3824324,21.8709459 C20.7310811,21.9114865 21.1121622,21.9135135 21.4993243,21.8425676 C21.8885135,21.7736486 22.2858108,21.6337838 22.6648649,21.4027027 C22.7581081,21.3398649 22.8533784,21.2871622 22.9425676,21.2081081 L23.0783784,21.0986486 L23.2040541,20.9810811 C23.2344595,20.9506757 23.2567568,20.9344595 23.2932432,20.8939189 L23.4209459,20.7540541 C23.5101351,20.6527027 23.5628378,20.5716216 23.6337838,20.4804054 C23.8912162,20.1114865 24.1202703,19.6817568 24.1709459,19.2033784 C24.4222973,16.8581081 22.7581081,15.8972973 21.7243243,15.8364865" id="Fill-11" fill="#FFFFFF"></path>
                        <path d="M15.9655405,22.4101351 C15.9655405,22.6695946 14.8101351,22.8804054 13.3831081,22.8804054 C11.9581081,22.8804054 10.8027027,22.6695946 10.8027027,22.4101351 C10.8027027,22.1486486 11.9581081,21.9398649 13.3831081,21.9398649 C14.8101351,21.9398649 15.9655405,22.1486486 15.9655405,22.4101351" id="Fill-12" fill="#FFFFFF"></path>
                        <path d="M14.2060811,13.5277027 C14.2060811,13.7608108 13.9162162,13.9493243 13.5614865,13.9493243 C13.2047297,13.9493243 12.9148649,13.7608108 12.9148649,13.5277027 C12.9148649,13.2945946 13.2047297,13.2459459 13.5614865,13.2459459 C13.9162162,13.2459459 14.2060811,13.2945946 14.2060811,13.5277027" id="Fill-13" fill="#269C96"></path>
                    </g>
                    <text id="TweetApp" font-family="AvenirNext-Regular, Avenir Next" font-size="16" font-weight="normal" letter-spacing="0.914285719" fill="#FFFFFF">
                        <tspan x="56" y="18">Twee</tspan>
                        <tspan x="97.4811429" y="18" letter-spacing="1.41">t</tspan>
                        <tspan x="103.963143" y="18">Ap</tspan>
                        <tspan x="127.151714" y="18" letter-spacing="1.04489791">p</tspan>
                    </text>
                    <path d="M40.5,4.5 L40.5,19.5332964" id="Line" stroke="#FFFFFF" stroke-linecap="square" opacity="0.800000012"></path>
                </g>
            </g>
        </g>
    </g>
</svg>